<svg xmlns="http://www.w3.org/2000/svg" fill="#4BC375" viewBox="0 0 600 600">
        <path d="M266.4,586.2C129,573.2,21.1,457.1,21.1,316.3c0-149.4,121.6-271,271-271c140.8,0,256.8,107.9,269.8,245.3   c-30-95.7-119.6-165.4-225.1-165.4C206.8,125.3,101,231,101,361.1C101,466.6,170.7,556.1,266.4,586.2z"></path>
        <path d="M336.9,569.4c-113.5,0-206-91.1-208.3-204.1c21.1,70.3,86.5,121.7,163.6,121.7c94.1,0,170.7-76.6,170.7-170.8   c0-77.1-51.4-142.4-121.7-163.6c112.9,2.3,204.1,94.9,204.1,208.3c0,44.1-13.6,86.2-39.4,121.9c-13.6,17.5-29.7,33.5-47.5,47.4   C423.1,555.8,380.9,569.4,336.9,569.4z"></path>
        <circle cx="53.4" cy="53.4" r="53.4"></circle>
        <path d="M367.9,346.9c22.5,0,40.7,18.2,40.7,40.7c0,22.5-18.2,40.7-40.7,40.7c-22.5,0-40.7-18.2-40.7-40.7   C327.2,365.1,345.4,346.9,367.9,346.9z"></path>
</svg>